<?xml version="1.0" standalone="no"?>
<!DOCTYPE svg PUBLIC "-//W3C//DTD SVG 20010904//EN"
 "http://www.w3.org/TR/2001/REC-SVG-20010904/DTD/svg10.dtd">
<svg version="1.0" xmlns="http://www.w3.org/2000/svg"
 width="720.000000pt" height="540.000000pt" viewBox="0 0 720.000000 540.000000"
 preserveAspectRatio="xMidYMid meet">

<g transform="translate(0.000000,540.000000) scale(0.100000,-0.100000)"
fill="#000000" stroke="none">
<path d="M4125 3179 c-41 -22 -125 -104 -125 -123 0 -5 -16 -24 -35 -42 -35
-31 -35 -33 -37 -120 -1 -49 -1 -111 0 -139 3 -55 34 -161 57 -191 17 -22 19
-44 5 -44 -5 0 -18 -8 -29 -19 -14 -14 -41 -20 -110 -25 -88 -7 -91 -8 -91
-32 l0 -24 -119 0 c-71 0 -121 -4 -123 -10 -2 -6 -54 -13 -116 -17 -91 -5
-116 -3 -122 8 -7 11 -12 10 -29 -5 -11 -10 -18 -23 -15 -27 3 -5 -4 -9 -15
-9 -12 0 -21 7 -21 15 0 12 -16 15 -80 15 -70 0 -80 -2 -80 -17 0 -15 -11 -18
-73 -21 -39 -1 -88 -6 -107 -11 -31 -8 -28 -9 25 -8 63 1 549 -11 575 -14 47
-7 -121 -13 -205 -8 -115 6 -535 -11 -535 -23 0 -4 33 -9 73 -11 39 -1 2 -3
-83 -4 -112 0 -136 2 -88 7 38 3 71 10 75 13 7 7 1 8 -60 12 -20 1 -40 5 -44
9 -16 15 16 21 110 20 70 -1 89 1 62 6 -22 4 -35 8 -30 9 6 1 1 6 -10 11 -26
11 -245 11 -245 0 0 -11 -70 -18 -76 -8 -8 12 -84 10 -84 -3 0 -6 -18 -10 -42
-9 -68 3 -144 -1 -130 -7 6 -2 10 -9 6 -14 -7 -11 -154 -12 -154 0 0 21 -489
17 -544 -5 -15 -6 -18 -4 -14 7 4 11 -11 15 -78 17 -69 2 -84 0 -84 -13 0 -12
-15 -15 -82 -13 -71 1 -77 2 -38 8 l45 7 -40 2 c-22 2 -256 5 -520 7 -264 2
-504 8 -534 14 -30 5 -67 10 -83 10 l-28 0 0 -920 0 -920 148 0 c81 0 241 5
357 10 636 28 2660 81 3085 80 l145 0 1 -43 c2 -73 61 -164 84 -127 6 9 13 9
32 -4 43 -28 55 -14 60 75 4 73 11 99 22 88 3 -2 8 -51 12 -107 6 -92 9 -105
30 -121 13 -11 24 -23 24 -29 0 -8 22 -22 36 -22 2 0 4 51 4 113 0 133 25 287
46 287 22 0 48 -29 88 -96 32 -56 37 -73 55 -225 12 -90 33 -217 48 -281 l28
-118 56 0 c47 0 66 6 118 37 34 20 67 45 73 56 10 19 6 168 -8 325 -5 49 -3
72 4 72 6 0 13 8 17 19 4 14 13 17 40 14 40 -4 44 6 15 32 -11 10 -18 20 -15
23 3 3 14 -5 25 -18 18 -21 23 -22 45 -10 14 7 25 17 25 21 0 4 -16 24 -35 45
-19 20 -35 39 -35 42 0 7 73 -59 78 -71 2 -4 13 4 24 18 20 25 20 26 2 48 -11
12 -23 25 -29 29 -6 5 -6 8 2 8 6 0 24 -15 39 -32 15 -18 31 -32 36 -30 4 1 8
-2 8 -8 0 -6 9 -6 26 0 14 6 43 10 65 10 22 0 56 7 76 15 19 8 37 15 38 15 1
0 6 -33 9 -72 4 -40 10 -84 13 -98 5 -21 4 -23 -9 -13 -19 16 -28 7 -28 -30 0
-35 -19 -106 -34 -125 -7 -10 -6 -13 5 -11 7 2 76 -1 151 -5 138 -8 195 -3
167 15 -8 5 -26 9 -41 9 -22 0 -28 5 -28 21 0 21 3 22 85 17 l84 -6 7 44 c7
46 1 143 -11 181 -7 21 -6 21 87 17 51 -2 159 -6 239 -8 138 -4 146 -4 142 14
-7 25 14 34 26 11 8 -14 8 -21 -2 -24 -18 -6 340 -16 783 -22 212 -3 424 -8
472 -11 l88 -5 0 1164 0 1165 -32 3 c-18 2 -76 2 -128 -1 -52 -3 -133 -2 -180
2 -47 3 -149 7 -227 7 -78 1 -144 5 -147 10 -3 5 -54 12 -113 16 -60 3 -141
13 -182 22 -62 13 -75 13 -83 2 -7 -11 -11 -11 -15 -1 -8 20 -44 14 -50 -8 -3
-11 -14 -20 -24 -20 -11 0 -19 -4 -19 -9 0 -5 -21 -16 -47 -25 -41 -14 -48
-14 -63 -1 -23 21 -47 21 -30 0 15 -18 -2 -45 -30 -45 -10 0 -23 -7 -30 -15
-7 -8 -19 -15 -26 -15 -8 0 -14 -4 -14 -9 0 -5 -15 -13 -32 -16 -18 -4 -37
-10 -43 -14 -25 -15 -76 -28 -99 -24 -13 3 -35 -3 -50 -12 -21 -14 -38 -16
-97 -10 -53 5 -73 4 -79 -5 -5 -8 -39 -15 -84 -18 -42 -2 -76 -9 -76 -13 0 -5
8 -9 18 -9 15 -1 15 -2 -2 -15 -22 -17 -96 -20 -96 -5 0 6 -18 10 -40 10 -30
0 -40 -4 -40 -16 0 -12 -10 -15 -42 -13 -24 1 -54 -3 -68 -8 -14 -6 -53 -8
-86 -5 -39 2 -64 0 -68 -7 -5 -7 -13 -7 -27 2 -16 10 -21 9 -30 -3 -7 -11 -9
-6 -6 20 2 19 2 27 0 18 -7 -30 -20 -20 -26 20 -15 89 -68 257 -101 315 -34
62 -114 147 -137 147 -7 0 -37 12 -68 27 -78 37 -198 43 -256 12z m-100 -809
c3 -5 1 -10 -4 -10 -6 0 -11 5 -11 10 0 6 2 10 4 10 3 0 8 -4 11 -10z m-2202
-47 c-13 -2 -33 -2 -45 0 -13 2 -3 4 22 4 25 0 35 -2 23 -4z m-988 -13 c-3 -5
-13 -10 -21 -10 -8 0 -14 5 -14 10 0 6 9 10 21 10 11 0 17 -4 14 -10z m1595 0
c12 -8 11 -10 -7 -10 -13 0 -23 5 -23 10 0 13 11 13 30 0z m-1870 -10 c0 -5
-4 -10 -9 -10 -6 0 -13 5 -16 10 -3 6 1 10 9 10 9 0 16 -4 16 -10z m858 3
c-10 -2 -28 -2 -40 0 -13 2 -5 4 17 4 22 1 32 -1 23 -4z m112 -4 c-11 -7 34
-9 150 -5 91 2 145 1 120 -3 l-45 -8 58 -1 c32 -1 66 2 75 7 9 4 40 5 67 1 31
-5 41 -8 25 -10 -14 -2 4 -6 40 -10 57 -6 50 -7 -60 -10 -220 -6 -600 -5 -618
1 -9 3 11 9 46 13 34 4 79 13 99 21 46 17 63 18 43 4z m63 4 c-7 -2 -21 -2
-30 0 -10 3 -4 5 12 5 17 0 24 -2 18 -5z m3874 -9 c-3 -3 -12 -4 -19 -1 -8 3
-5 6 6 6 11 1 17 -2 13 -5z m-3232 -25 c-69 -10 -137 -11 -131 -1 3 5 45 8 93
9 76 0 81 -1 38 -8z m297 -21 c3 -7 32 -11 88 -10 58 1 80 -2 72 -10 -14 -14
-176 -31 -240 -25 -38 4 -52 2 -49 -6 2 -7 23 -12 48 -12 136 -1 352 -18 330
-27 -13 -4 -62 -6 -110 -3 -47 2 -160 0 -251 -5 -365 -21 -430 -21 -424 -5 5
12 -2 15 -32 16 l-39 1 45 9 c25 4 68 11 95 15 l50 7 -65 9 c-36 4 -75 13 -87
19 -13 7 -39 9 -66 5 -28 -4 -48 -3 -52 4 -11 17 216 13 239 -5 11 -8 38 -15
60 -15 45 0 42 9 -6 20 -22 6 9 9 97 10 227 4 253 5 248 13 -2 4 7 7 21 7 13
0 26 -5 28 -12z m711 -5 c-7 -2 -19 -2 -25 0 -7 3 -2 5 12 5 14 0 19 -2 13 -5z
m164 1 c-3 -3 -12 -4 -19 -1 -8 3 -5 6 6 6 11 1 17 -2 13 -5z m-288 -19 c156
-5 210 -13 110 -17 -83 -3 -95 -3 -230 -12 -151 -9 -275 0 -283 21 -3 8 -2 12
2 9 4 -2 14 0 22 5 9 6 58 7 120 4 58 -3 174 -8 259 -10z m247 6 c5 -5 20 -11
34 -14 14 -2 5 -5 -22 -6 -45 -1 -58 6 -41 22 9 9 17 9 29 -2z m387 -38 c-7
-2 -21 -2 -30 0 -10 3 -4 5 12 5 17 0 24 -2 18 -5z m-810 -30 c-23 -2 -64 -2
-90 0 -26 2 -7 3 42 3 50 0 71 -1 48 -3z m522 -33 c4 -7 13 -6 26 1 21 11 112
2 104 -10 -2 -4 1 -8 8 -9 65 -7 107 -16 107 -23 0 -8 -45 -10 -222 -13 -21
-1 -32 3 -30 12 1 6 -2 12 -8 12 -5 0 -10 -6 -10 -14 0 -20 -33 -26 -145 -24
-55 0 -86 3 -70 5 53 6 146 34 179 53 36 21 52 24 61 10z m-3218 -10 c53 0 94
-2 92 -5 -12 -11 -224 -24 -233 -15 -13 13 12 32 32 25 8 -3 57 -5 109 -5z
m3396 3 c-7 -2 -19 -2 -25 0 -7 3 -2 5 12 5 14 0 19 -2 13 -5z m315 -13 c-4
-21 -198 -26 -198 -5 0 7 -5 15 -12 17 -7 3 38 4 100 4 94 -1 112 -3 110 -16z
m735 13 c-13 -2 -35 -2 -50 0 -16 2 -5 4 22 4 28 0 40 -2 28 -4z m-4196 -9
c-3 -3 -12 -4 -19 -1 -8 3 -5 6 6 6 11 1 17 -2 13 -5z m80 0 c-3 -3 -12 -4
-19 -1 -8 3 -5 6 6 6 11 1 17 -2 13 -5z m2433 -10 c28 -5 32 -3 20 6 -13 10
-12 11 3 6 10 -3 34 -6 53 -6 19 0 34 -4 34 -9 0 -9 -112 -24 -195 -26 -27 0
-69 -6 -93 -13 -45 -14 -75 -7 -51 10 9 6 -27 7 -101 2 -63 -5 -158 -9 -210
-10 -52 0 -106 -4 -120 -7 -14 -3 -75 -9 -136 -12 -89 -5 -114 -4 -125 8 -15
15 -195 31 -339 30 -72 -1 -73 0 -25 7 28 5 154 5 280 2 127 -4 253 -6 280 -5
104 4 424 11 515 12 52 0 102 5 110 11 8 6 26 8 40 5 14 -3 41 -8 60 -11z
m1597 10 c-3 -3 -12 -4 -19 -1 -8 3 -5 6 6 6 11 1 17 -2 13 -5z m-4521 -32
c-8 -9 -18 -13 -22 -10 -8 9 19 37 29 31 5 -3 2 -12 -7 -21z m884 14 c19 0 53
2 74 4 52 6 59 -15 9 -24 -21 -3 -105 -8 -188 -10 l-150 -5 90 13 90 13 -85 3
c-72 2 -79 4 -45 11 22 4 69 5 105 1 36 -3 81 -6 100 -6z m675 -6 c28 -1 28
-2 8 -10 -26 -10 -263 -9 -263 2 0 13 86 16 255 8z m1618 3 c-13 -2 -33 -2
-45 0 -13 2 -3 4 22 4 25 0 35 -2 23 -4z m-2673 -13 c0 -5 -7 -10 -15 -10 -8
0 -15 5 -15 10 0 6 7 10 15 10 8 0 15 -4 15 -10z m2595 -10 c4 -6 -20 -9 -67
-8 l-73 1 60 7 c33 4 63 7 67 8 4 1 10 -2 13 -8z m-152 -17 c-7 -2 -19 -2 -25
0 -7 3 -2 5 12 5 14 0 19 -2 13 -5z m-1285 -10 c-10 -2 -26 -2 -35 0 -10 3 -2
5 17 5 19 0 27 -2 18 -5z m2867 -3 c-11 -5 -27 -9 -35 -9 -9 0 -8 4 5 9 11 5
27 9 35 9 9 0 8 -4 -5 -9z m-3148 -6 c-3 -3 -12 -4 -19 -1 -8 3 -5 6 6 6 11 1
17 -2 13 -5z m511 -1 c-10 -2 -28 -2 -40 0 -13 2 -5 4 17 4 22 1 32 -1 23 -4z
m80 0 c-10 -2 -28 -2 -40 0 -13 2 -5 4 17 4 22 1 32 -1 23 -4z m1534 0 c-6 -2
-10 -9 -7 -14 3 -5 14 -3 25 3 11 7 22 9 26 5 12 -11 -2 -18 -48 -24 -38 -6
-42 -4 -30 9 11 14 7 15 -32 13 -24 -2 -50 -6 -57 -10 -14 -9 -100 -8 -198 1
-118 12 -41 24 149 23 102 0 179 -3 172 -6z m2756 -11 c2 -7 -3 -12 -12 -12
-9 0 -16 7 -16 16 0 17 22 14 28 -4z m-3819 4 c-2 -2 -51 -6 -109 -8 -59 -3
-85 -2 -60 2 48 7 176 13 169 6z m491 -6 l25 -1 -24 -10 c-16 -6 -49 -6 -95 0
-38 5 -74 7 -79 4 -6 -3 -8 -2 -4 3 4 8 90 10 177 4z m-1464 -42 c4 -5 -23 -8
-59 -8 -37 0 -67 4 -67 8 0 10 116 10 126 0z m4444 2 c0 -5 -4 -10 -10 -10 -5
0 -10 5 -10 10 0 6 5 10 10 10 6 0 10 -4 10 -10z m-2267 -17 c-13 -2 -33 -2
-45 0 -13 2 -3 4 22 4 25 0 35 -2 23 -4z m84 1 c-3 -3 -12 -4 -19 -1 -8 3 -5
6 6 6 11 1 17 -2 13 -5z m793 2 c0 -2 -15 -9 -32 -15 -30 -10 -31 -9 -14 4 18
14 46 20 46 11z m-2050 -26 c0 -5 -2 -10 -4 -10 -3 0 -8 5 -11 10 -3 6 -1 10
4 10 6 0 11 -4 11 -10z m-647 -17 c-7 -2 -19 -2 -25 0 -7 3 -2 5 12 5 14 0 19
-2 13 -5z m2664 -49 c-3 -3 -12 -4 -19 -1 -8 3 -5 6 6 6 11 1 17 -2 13 -5z
m-1328 -28 c-12 -10 -59 -15 -59 -6 0 5 14 10 32 10 17 0 29 -2 27 -4z m28
-32 c-3 -3 -12 -4 -19 -1 -8 3 -5 6 6 6 11 1 17 -2 13 -5z m-254 -31 c-7 -2
-19 -2 -25 0 -7 3 -2 5 12 5 14 0 19 -2 13 -5z m297 -33 c0 -5 -9 -10 -20 -10
-11 0 -20 5 -20 10 0 6 9 10 20 10 11 0 20 -4 20 -10z m310 -10 c0 -5 -3 -10
-7 -10 -5 0 -19 -3 -33 -6 -24 -5 -24 -5 -6 10 22 18 46 21 46 6z m-575 -20
c47 -7 45 -7 -30 -8 -44 0 -91 4 -105 8 -34 11 66 11 135 0z m3830 -34 c17
-13 14 -14 -33 -17 -44 -3 -52 -1 -52 14 0 21 57 24 85 3z m-2236 -18 c-7 -13
-15 -25 -18 -28 -12 -10 -31 -50 -31 -64 0 -8 -3 -16 -7 -18 -5 -1 -21 -22
-37 -46 -42 -61 -231 -253 -241 -244 -5 4 -5 -1 -2 -10 4 -12 2 -15 -9 -11 -8
3 -14 -1 -14 -11 0 -8 -10 -21 -22 -27 -13 -7 -36 -25 -52 -40 -16 -16 -31
-27 -34 -25 -8 8 19 46 33 46 8 0 17 11 21 25 3 14 11 25 18 25 14 1 106 85
106 98 0 6 7 12 15 15 8 4 25 28 39 54 14 26 25 41 26 33 0 -12 3 -11 11 3 6
10 8 25 5 32 -3 8 -2 14 2 13 12 -2 46 15 63 31 8 9 39 51 69 94 49 72 86 105
59 55z m-1569 -12 c0 -3 -4 -8 -10 -11 -5 -3 -10 -1 -10 4 0 6 5 11 10 11 6 0
10 -2 10 -4z m3665 -6 c3 -5 -1 -10 -9 -10 -8 0 -18 5 -21 10 -3 6 1 10 9 10
8 0 18 -4 21 -10z m-2638 -32 c-3 -8 -6 -5 -6 6 -1 11 2 17 5 13 3 -3 4 -12 1
-19z m3028 -28 c11 -17 -5 -32 -21 -19 -7 6 -11 15 -8 20 7 12 21 11 29 -1z
m-3104 -42 c-6 -18 -15 -51 -21 -73 l-10 -40 4 50 c4 49 25 110 34 101 2 -3
-1 -19 -7 -38z m105 -14 c-8 -21 -15 -34 -15 -28 -1 15 20 76 25 71 2 -2 -2
-21 -10 -43z m2414 15 c0 -20 -15 -26 -25 -9 -9 15 3 43 15 35 5 -3 10 -15 10
-26z m-2079 -32 c-10 -9 -11 -8 -5 6 3 10 9 15 12 12 3 -3 0 -11 -7 -18z
m-396 -27 c-9 -41 -17 -33 -9 9 4 17 9 30 11 27 3 -2 2 -19 -2 -36z m2805 10
c0 -5 -5 -10 -11 -10 -5 0 -7 5 -4 10 3 6 8 10 11 10 2 0 4 -4 4 -10z m-5 -40
c3 -5 1 -10 -4 -10 -6 0 -11 5 -11 10 0 6 2 10 4 10 3 0 8 -4 11 -10z m214 -4
c10 -12 8 -13 -8 -9 -12 3 -21 9 -21 14 0 14 16 11 29 -5z m51 10 c0 -2 -7 -6
-15 -10 -8 -3 -15 -1 -15 4 0 6 7 10 15 10 8 0 15 -2 15 -4z m-3094 -92 c-10
-40 -15 -50 -15 -30 -1 31 21 115 26 99 2 -5 -3 -36 -11 -69z m535 39 c-8 -15
-10 -15 -11 -2 0 17 10 32 18 25 2 -3 -1 -13 -7 -23z m-464 -15 c-3 -8 -6 -5
-6 6 -1 11 2 17 5 13 3 -3 4 -12 1 -19z m2772 0 c11 -15 10 -17 -13 -15 -14 1
-26 -2 -28 -8 -2 -6 25 -11 62 -13 86 -4 104 -22 22 -22 -35 0 -62 -4 -62 -10
0 -5 -9 -10 -20 -10 -13 0 -20 7 -20 20 0 10 -9 24 -20 30 -29 15 -25 25 12
27 17 1 36 7 42 13 5 5 10 9 11 7 0 -1 6 -10 14 -19z m137 -7 c-3 -5 -15 -7
-26 -4 -28 7 -25 13 6 13 14 0 23 -4 20 -9z m71 -7 c-3 -3 -12 -4 -19 -1 -8 3
-5 6 6 6 11 1 17 -2 13 -5z m-2930 -36 c-3 -8 -6 -5 -6 6 -1 11 2 17 5 13 3
-3 4 -12 1 -19z m-156 -55 l-4 -38 -8 30 c-7 25 -2 39 16 45 1 0 -1 -17 -4
-37z m50 -133 c-16 -80 -30 -131 -30 -115 -1 17 10 84 24 149 14 65 26 123 26
130 1 6 3 4 5 -4 3 -8 -9 -80 -25 -160z m96 138 c-3 -8 -6 -5 -6 6 -1 11 2 17
5 13 3 -3 4 -12 1 -19z m-131 -96 c-20 -88 -30 -188 -20 -204 12 -19 11 -78
-1 -75 -6 1 -25 -13 -43 -30 -17 -18 -39 -33 -48 -33 -10 0 -15 -3 -11 -6 6
-7 -71 -84 -84 -84 -4 0 -14 -3 -23 -6 -12 -4 -16 0 -16 15 0 13 22 42 58 75
31 30 78 74 104 97 l46 44 11 100 c10 100 32 206 39 185 2 -6 -3 -41 -12 -78z
m181 26 c-3 -7 -5 -2 -5 12 0 14 2 19 5 13 2 -7 2 -19 0 -25z m-210 -20 c-3
-7 -5 -2 -5 12 0 14 2 19 5 13 2 -7 2 -19 0 -25z m114 -88 l-10 -25 0 27 c-1
14 2 35 6 45 7 17 8 17 11 -2 1 -12 -2 -32 -7 -45z m-27 -25 c3 -8 1 -15 -4
-15 -6 0 -10 7 -10 15 0 8 2 15 4 15 2 0 6 -7 10 -15z m86 -20 c0 -17 -26 -55
-39 -57 -22 -2 -54 -5 -65 -7 -4 0 2 -9 15 -19 14 -12 18 -21 11 -26 -11 -6
-42 29 -42 49 0 24 47 60 83 62 20 2 37 1 37 -2z m44 -11 c4 -10 1 -14 -6 -12
-15 5 -23 28 -10 28 5 0 13 -7 16 -16z m70 -43 c-7 -7 -34 28 -34 43 1 6 10 0
21 -13 11 -13 17 -27 13 -30z m236 -116 c0 -5 -16 16 -35 48 -19 32 -35 61
-35 65 1 11 70 -101 70 -113z m88 10 c42 -60 55 -89 28 -63 -7 8 -21 27 -30
43 -9 17 -30 48 -46 70 -16 22 -29 44 -30 49 0 10 20 -15 78 -99z m132 67 c0
-13 -3 -12 -15 4 -19 25 -19 40 0 24 8 -7 15 -20 15 -28z m-326 -26 c38 -65
32 -69 -9 -7 -19 29 -35 55 -35 57 0 13 21 -11 44 -50z m254 0 c18 -25 29 -46
24 -46 -5 0 -17 11 -26 25 -9 14 -24 37 -33 52 -28 43 -1 19 35 -31z m-340
-11 c-3 -3 -9 2 -12 12 -6 14 -5 15 5 6 7 -7 10 -15 7 -18z m36 -51 c3 -8 2
-12 -4 -9 -6 3 -10 10 -10 16 0 14 7 11 14 -7z m121 -66 c47 -77 53 -90 26
-58 -22 27 -75 120 -68 120 2 0 21 -28 42 -62z m59 46 c3 -8 2 -12 -4 -9 -6 3
-10 10 -10 16 0 14 7 11 14 -7z m-137 -56 c21 -36 34 -68 29 -68 -2 0 -16 23
-30 50 -29 56 -28 68 1 18z m167 7 c9 -14 13 -25 8 -25 -5 0 -14 11 -20 25 -6
14 -10 25 -8 25 2 0 11 -11 20 -25z m246 -27 c0 -6 -6 -5 -15 2 -8 7 -15 14
-15 16 0 2 7 1 15 -2 8 -4 15 -11 15 -16z m-713 -50 c-2 -13 -4 -5 -4 17 -1
22 1 32 4 23 2 -10 2 -28 0 -40z m-350 -38 c-7 -17 -13 -26 -15 -21 -3 10 15
51 22 51 3 0 -1 -14 -7 -30z m1028 20 c3 -5 2 -10 -4 -10 -5 0 -13 5 -16 10
-3 6 -2 10 4 10 5 0 13 -4 16 -10z m75 -3 c0 -2 -10 -12 -21 -23 -22 -19 -22
-19 -10 4 10 18 31 31 31 19z m-1085 -37 c3 -5 1 -10 -4 -10 -6 0 -11 5 -11
10 0 6 2 10 4 10 3 0 8 -4 11 -10z m1082 -17 c0 -14 -52 -18 -61 -4 -8 13 1
18 32 18 17 0 29 -6 29 -14z m821 -5 c-4 -17 -69 -29 -85 -16 -7 5 -17 7 -22
4 -5 -4 -12 -2 -15 3 -7 10 24 17 87 20 25 1 36 -3 35 -11z m109 -24 c-3 -3
-12 -4 -19 -1 -8 3 -5 6 6 6 11 1 17 -2 13 -5z m-1187 -108 c0 -5 -10 0 -22
11 -13 11 -29 18 -35 16 -14 -5 -18 19 -6 30 8 8 63 -42 63 -57z m-32 3 c-2
-6 -8 -10 -13 -10 -5 0 -11 4 -13 10 -2 6 4 11 13 11 9 0 15 -5 13 -11z"/>
<path d="M2182 2201 c-39 -7 -43 -24 -7 -28 27 -4 65 12 65 27 0 11 -7 11 -58
1z"/>
<path d="M2260 2202 c0 -22 91 -31 120 -12 11 7 0 10 -37 10 -28 0 -58 3 -67
6 -9 3 -16 2 -16 -4z"/>
<path d="M2768 2213 c6 -2 18 -2 25 0 6 3 1 5 -13 5 -14 0 -19 -2 -12 -5z"/>
<path d="M2898 2213 c12 -2 32 -2 45 0 12 2 2 4 -23 4 -25 0 -35 -2 -22 -4z"/>
<path d="M2100 2070 c0 -5 14 -10 30 -10 17 0 30 5 30 10 0 6 -13 10 -30 10
-16 0 -30 -4 -30 -10z"/>
<path d="M2808 2353 c6 -2 18 -2 25 0 6 3 1 5 -13 5 -14 0 -19 -2 -12 -5z"/>
<path d="M1553 2343 c9 -2 25 -2 35 0 9 3 1 5 -18 5 -19 0 -27 -2 -17 -5z"/>
<path d="M4552 435 c0 -16 2 -22 5 -12 2 9 2 23 0 30 -3 6 -5 -1 -5 -18z"/>
<path d="M3921 394 c0 -11 3 -14 6 -6 3 7 2 16 -1 19 -3 4 -6 -2 -5 -13z"/>
<path d="M2313 385 c5 -13 87 -19 87 -7 0 6 -20 12 -45 14 -27 2 -44 -1 -42
-7z"/>
<path d="M2246 375 c-9 -9 -34 -15 -65 -15 -28 0 -61 -6 -72 -12 -17 -10 -23
-10 -26 0 -7 17 -83 16 -83 -2 0 -20 -221 -17 -228 3 -3 8 -7 9 -11 3 -10 -17
-152 -22 -158 -6 -7 18 -582 21 -616 3 -16 -9 -22 -9 -25 0 -5 14 -79 15 -84
1 -2 -7 -66 -12 -173 -13 -94 -2 -176 -7 -183 -11 -7 -4 -89 -7 -182 -6 -126
0 -183 -3 -222 -15 -38 -11 -62 -12 -86 -6 l-32 10 0 -155 0 -154 135 0 c128
0 135 1 135 20 0 19 7 20 99 20 95 0 100 -1 104 -22 2 -13 5 -3 6 22 1 25 5
50 9 56 4 7 39 15 77 19 63 7 74 11 107 45 40 40 62 46 166 42 40 -2 42 -4 42
-32 0 -16 4 -30 9 -30 5 0 21 14 34 30 25 29 28 30 111 30 79 0 86 2 86 20 0
21 8 24 34 14 13 -5 14 -9 5 -20 -10 -12 0 -14 58 -14 66 0 70 1 69 23 -1 19
4 22 37 22 20 0 37 3 37 8 0 4 18 7 40 7 29 0 40 -4 40 -15 0 -11 -12 -15 -42
-16 l-43 -2 45 -6 c25 -4 51 -10 58 -15 8 -5 20 1 33 18 l20 26 21 -20 c26
-24 27 -24 52 -5 16 12 54 15 178 15 154 0 158 1 158 21 0 20 4 21 78 17 42
-3 60 -3 40 -1 -25 3 -38 9 -38 19 0 17 60 20 77 3 8 -8 17 -8 31 0 29 15 52
14 52 -4 0 -23 276 -22 308 1 12 8 39 15 60 14 20 -1 90 -2 155 -1 97 1 117 4
117 16 0 12 -16 15 -80 15 -83 0 -115 19 -37 22 37 1 38 2 9 5 -18 3 -57 -5
-88 -16 -64 -24 -111 -26 -138 -6 -14 10 -45 15 -103 15 -67 0 -83 3 -83 15 0
8 -4 15 -9 15 -5 0 -16 -7 -25 -15z"/>
<path d="M2513 363 c9 -2 25 -2 35 0 9 3 1 5 -18 5 -19 0 -27 -2 -17 -5z"/>
<path d="M3208 353 c6 -2 18 -2 25 0 6 3 1 5 -13 5 -14 0 -19 -2 -12 -5z"/>
<path d="M5540 320 c0 -5 9 -10 20 -10 11 0 20 5 20 10 0 6 -9 10 -20 10 -11
0 -20 -4 -20 -10z"/>
<path d="M5335 310 c-3 -5 1 -10 9 -10 9 0 16 5 16 10 0 6 -4 10 -9 10 -6 0
-13 -4 -16 -10z"/>
<path d="M5928 313 c7 -3 16 -2 19 1 4 3 -2 6 -13 5 -11 0 -14 -3 -6 -6z"/>
</g>
</svg>
